<svg width="512" height="512" viewBox="0 0 512 512" fill="none" xmlns="http://www.w3.org/2000/svg">
<rect width="512" height="512" fill="#DAFF72"/>
<path d="M448.205 166.031V345.969H362.326V256V166.031H448.205Z" fill="#5BA948"/>
<path d="M362.326 166.031H256V256H362.326V166.031Z" fill="#5BA948"/>
<path d="M362.326 256H256V345.969H362.326V256Z" fill="#23A24D"/>
<path d="M256 256H149.674V345.969H256V256Z" fill="#5BA948"/>
<path d="M256 166.031H149.674V256H256V166.031Z" fill="#23A24D"/>
<path d="M149.674 256V345.969H63.7949V166.031H149.674V256Z" fill="#5BA948"/>
<path d="M256 345.969V386.863H63.7949V345.969H149.674H256Z" fill="#23A24D"/>
<path d="M448.205 125.137V166.031H362.326H256V125.137H448.205Z" fill="#23A24D"/>
<path d="M448.205 345.969V386.863H256V345.969H362.326H448.205Z" fill="#43B05C"/>
<path d="M256 125.137V166.031H149.674H63.7949V125.137H256Z" fill="#43B05C"/>
<path d="M57.6604 119.002V392.998H454.339V119.002H57.6604ZM442.071 159.898H262.135V131.271H442.071V159.898ZM356.192 249.865H262.135V172.166H356.192V249.865ZM249.865 249.865H155.807V172.166H249.865V249.865ZM143.539 339.834H69.9288V172.166H143.539V339.834ZM155.807 262.135H249.865V339.835H155.807V262.135ZM262.135 262.135H356.192V339.835H262.135V262.135ZM368.461 172.166H442.071V339.834H368.461V172.166ZM249.865 131.271V159.897H69.9288V131.271H249.865ZM69.9288 352.102H249.865V380.728H69.9288V352.102ZM262.135 380.729V352.103H442.071V380.729H262.135Z" fill="black"/>
</svg>
